<?xml version="1.0" encoding="UTF-8"?>
<svg version="1.1" xmlns="http://www.w3.org/2000/svg" width="100" height="102">
<path d="M0 0 C0.33 1.32 0.66 2.64 1 4 C1.94875 4.0825 2.8975 4.165 3.875 4.25 C7 5 7 5 8.375 7.0625 C8.58125 7.701875 8.7875 8.34125 9 9 C7.71034824 10.37562854 6.37310707 11.70766393 5 13 C4.34 13 3.68 13 3 13 C3.11470137 14.75070517 3.24219028 16.50057536 3.375 18.25 C3.44460937 19.22453125 3.51421875 20.1990625 3.5859375 21.203125 C3.98910348 23.92639708 4.52789508 25.69123113 6 28 C6.66 28.33 7.32 28.66 8 29 C8 29.66 8 30.32 8 31 C8.66 31 9.32 31 10 31 C13.43242968 36.40607675 15.79437451 40.38021243 15 47 C13.74874616 50.75376152 12.4347596 51.24073289 9 53 C8.34 53 7.68 53 7 53 C6.67 53.99 6.34 54.98 6 56 C3.03 56.495 3.03 56.495 0 57 C-0.2475 57.94875 -0.495 58.8975 -0.75 59.875 C-2 63 -2 63 -4 64.4375 C-6 65 -6 65 -8 64 C-8 63.34 -8 62.68 -8 62 C-8.886875 62.53625 -9.77375 63.0725 -10.6875 63.625 C-14 65 -14 65 -16.875 64.1875 C-17.57625 63.795625 -18.2775 63.40375 -19 63 C-19.84597745 58.30012528 -19.84971294 54.67342118 -19 50 C-19.495 48.515 -19.495 48.515 -20 47 C-20.66 47 -21.32 47 -22 47 C-22.66 45.68 -23.32 44.36 -24 43 C-22.06745228 40.9754262 -20.36841312 39.57894208 -18 38 C-17.02038939 34.35725637 -16.80864779 30.76143778 -17 27 C-18.63046953 24.12827495 -18.63046953 24.12827495 -21 22 C-23.174505 18.19461625 -24 16.44494611 -24 12 C-23.34 12 -22.68 12 -22 12 C-21.67 11.01 -21.34 10.02 -21 9 C-18.33916031 7.00603743 -15.38757675 5 -12 5 C-12 4.01 -12 3.02 -12 2 C-4.71428571 -1.57142857 -4.71428571 -1.57142857 0 0 Z M-7 31 C-7.144375 32.051875 -7.28875 33.10375 -7.4375 34.1875 C-7.75545444 36.34252452 -8.10607149 38.4950003 -8.5625 40.625 C-9.02430827 43.13195919 -9.07266822 45.45661228 -9 48 C-8.34 48.33 -7.68 48.66 -7 49 C-6.34 48.34 -5.68 47.68 -5 47 C-5.29758419 44.6618385 -5.63239269 42.32817964 -6 40 C-5.67 39.01 -5.34 38.02 -5 37 C-5.27571139 34.99124558 -5.60235737 32.98821313 -6 31 C-6.33 31 -6.66 31 -7 31 Z M3 38 C3 40.31 3 42.62 3 45 C3.99 45 4.98 45 6 45 C5.67 42.69 5.34 40.38 5 38 C4.34 38 3.68 38 3 38 Z " fill="#028903" transform="translate(57,20)"/>
<path d="M0 0 C0.33 1.32 0.66 2.64 1 4 C1.94875 4.0825 2.8975 4.165 3.875 4.25 C7 5 7 5 8.375 7.0625 C8.58125 7.701875 8.7875 8.34125 9 9 C7.71034824 10.37562854 6.37310707 11.70766393 5 13 C4.34 13 3.68 13 3 13 C3.11470137 14.75070517 3.24219028 16.50057536 3.375 18.25 C3.44460937 19.22453125 3.51421875 20.1990625 3.5859375 21.203125 C3.98910348 23.92639708 4.52789508 25.69123113 6 28 C6.66 28.33 7.32 28.66 8 29 C8 29.66 8 30.32 8 31 C8.66 31 9.32 31 10 31 C13.43242968 36.40607675 15.79437451 40.38021243 15 47 C13.74874616 50.75376152 12.4347596 51.24073289 9 53 C8.34 53 7.68 53 7 53 C6.67 53.99 6.34 54.98 6 56 C3.03 56.495 3.03 56.495 0 57 C-0.2475 57.94875 -0.495 58.8975 -0.75 59.875 C-2 63 -2 63 -4 64.4375 C-6 65 -6 65 -8 64 C-8 63.34 -8 62.68 -8 62 C-8.886875 62.53625 -9.77375 63.0725 -10.6875 63.625 C-14 65 -14 65 -16.875 64.1875 C-17.57625 63.795625 -18.2775 63.40375 -19 63 C-19.84597745 58.30012528 -19.84971294 54.67342118 -19 50 C-19.495 48.515 -19.495 48.515 -20 47 C-20.66 47 -21.32 47 -22 47 C-22.66 45.68 -23.32 44.36 -24 43 C-22.06745228 40.9754262 -20.36841312 39.57894208 -18 38 C-17.02038939 34.35725637 -16.80864779 30.76143778 -17 27 C-18.63046953 24.12827495 -18.63046953 24.12827495 -21 22 C-23.174505 18.19461625 -24 16.44494611 -24 12 C-23.34 12 -22.68 12 -22 12 C-21.67 11.01 -21.34 10.02 -21 9 C-18.33916031 7.00603743 -15.38757675 5 -12 5 C-12 4.01 -12 3.02 -12 2 C-4.71428571 -1.57142857 -4.71428571 -1.57142857 0 0 Z M-9 2 C-9.04125 2.61875 -9.0825 3.2375 -9.125 3.875 C-9.558125 4.926875 -9.558125 4.926875 -10 6 C-12.9375 7.1875 -12.9375 7.1875 -16 8 C-16.99 8.495 -16.99 8.495 -18 9 C-18 9.66 -18 10.32 -18 11 C-18.66 11 -19.32 11 -20 11 C-20.62972989 16.16378512 -19.28572364 18.61276956 -16.2890625 22.58203125 C-15.03497914 24.13292464 -15.03497914 24.13292464 -13 25 C-12.68379578 31.79839071 -13.87323618 38.30983984 -15 45 C-15.99 44.01 -16.98 43.02 -18 42 C-18.99 42.495 -18.99 42.495 -20 43 C-19.67 44.32 -19.34 45.64 -19 47 C-18.34 47 -17.68 47 -17 47 C-16.22887459 51.72314313 -15.90235126 56.21521178 -16 61 C-15.01 61.33 -14.02 61.66 -13 62 C-12.67 59.36 -12.34 56.72 -12 54 C-10.35 54.33 -8.7 54.66 -7 55 C-7.185625 55.94875 -7.37125 56.8975 -7.5625 57.875 C-8.28686632 60.89868793 -8.28686632 60.89868793 -7 63 C-6.01 63 -5.02 63 -4 63 C-3.34 60.36 -2.68 57.72 -2 55 C-0.9275 54.731875 0.145 54.46375 1.25 54.1875 C4.56160307 53.13882569 6.52866834 52.37247839 9 50 C9 49.34 9 48.68 9 48 C10.485 47.505 10.485 47.505 12 47 C12.66873178 40.58017494 10.86463816 37.07577832 7 32 C4.98082178 29.55789478 4.98082178 29.55789478 3 28 C2.34 28 1.68 28 1 28 C0.67 22.06 0.34 16.12 0 10 C2.475 10.495 2.475 10.495 5 11 C5 9.68 5 8.36 5 7 C3.02 6.34 1.04 5.68 -1 5 C-1 4.01 -1 3.02 -1 2 C-1.763125 2.185625 -2.52625 2.37125 -3.3125 2.5625 C-6 3 -6 3 -9 2 Z " fill="#1E0D28" transform="translate(57,20)"/>
<path d="M0 0 C2.66666667 0 5.33333333 0 8 0 C8 0.99 8 1.98 8 3 C9.98 3.66 11.96 4.32 14 5 C14 6.32 14 7.64 14 9 C11.525 8.505 11.525 8.505 9 8 C9.33 13.94 9.66 19.88 10 26 C11.32 26.33 12.64 26.66 14 27 C13.67 28.32 13.34 29.64 13 31 C11.35 31 9.7 31 8 31 C7.67 30.01 7.34 29.02 7 28 C3.48809191 26.77030122 3.48809191 26.77030122 0 26 C-0.66 26.66 -1.32 27.32 -2 28 C-2.3403125 26.9171875 -2.3403125 26.9171875 -2.6875 25.8125 C-4.25462677 22.45437121 -6.328216 20.5381948 -9 18 C-11.29013653 14.5647952 -11.17842973 13.014669 -11 9 C-10.34 9 -9.68 9 -9 9 C-9 8.34 -9 7.68 -9 7 C-3.25 4 -3.25 4 -1 4 C-0.67 2.68 -0.34 1.36 0 0 Z " fill="#02E903" transform="translate(48,22)"/>
<path d="M0 0 C2.31 0.66 4.62 1.32 7 2 C7.25850895 9.42495142 7.14495732 16.82366132 5 24 C4.34 24.33 3.68 24.66 3 25 C0.375 24.0625 0.375 24.0625 -2 23 C-2.31732638 15.22550376 -1.11855299 7.67007765 0 0 Z M2 4 C1.855625 5.051875 1.71125 6.10375 1.5625 7.1875 C1.24454556 9.34252452 0.89392851 11.4950003 0.4375 13.625 C-0.02430827 16.13195919 -0.07266822 18.45661228 0 21 C0.66 21.33 1.32 21.66 2 22 C2.66 21.34 3.32 20.68 4 20 C3.70241581 17.6618385 3.36760731 15.32817964 3 13 C3.33 12.01 3.66 11.02 4 10 C3.72428861 7.99124558 3.39764263 5.98821313 3 4 C2.67 4 2.34 4 2 4 Z " fill="#1E0B28" transform="translate(48,47)"/>
<path d="M0 0 C3.42724441 5.14086661 3.1015597 10.00797796 3 16 C4.32 16.33 5.64 16.66 7 17 C6.67 18.32 6.34 19.64 6 21 C4.35 21 2.7 21 1 21 C0.67 20.01 0.34 19.02 0 18 C-0.66 17.67 -1.32 17.34 -2 17 C-1.82597656 16.46890625 -1.65195312 15.9378125 -1.47265625 15.390625 C-0.87878929 12.38693428 -1.13978394 9.79331972 -1.4375 6.75 C-1.59025391 5.13351563 -1.59025391 5.13351563 -1.74609375 3.484375 C-1.82988281 2.66453125 -1.91367187 1.8446875 -2 1 C-1.34 0.67 -0.68 0.34 0 0 Z " fill="#01EC01" transform="translate(55,32)"/>
<path d="M0 0 C4.19562288 2.09781144 5.19998191 2.83153706 7 7 C6.6875 10.3125 6.6875 10.3125 6 13 C5.34 13 4.68 13 4 13 C3.67 13.99 3.34 14.98 3 16 C1.02 16.66 -0.96 17.32 -3 18 C-2.01 12.06 -1.02 6.12 0 0 Z M1 5 C1 7.31 1 9.62 1 12 C1.99 12 2.98 12 4 12 C3.67 9.69 3.34 7.38 3 5 C2.34 5 1.68 5 1 5 Z " fill="#1F0928" transform="translate(59,53)"/>
<path d="M0 0 C1.98 0.495 1.98 0.495 4 1 C4 5.95 4 10.9 4 16 C2.35 15.67 0.7 15.34 -1 15 C-1.10251672 9.87416389 -1.03590199 5.05002222 0 0 Z " fill="#1D1A26" transform="translate(50,29)"/>
<path d="M0 0 C0.21432579 6.64409958 -0.48766299 12.53205867 -2 19 C-2.99 18.34 -3.98 17.68 -5 17 C-5.4937203 11.27284447 -4.72720082 6.46946927 -3 1 C-1 0 -1 0 0 0 Z " fill="#02B003" transform="translate(48,48)"/>
<path d="M0 0 C0.33 0.99 0.66 1.98 1 3 C1.99 3 2.98 3 4 3 C3.91266424 4.60517097 3.80447776 6.20921662 3.6875 7.8125 C3.62949219 8.70582031 3.57148437 9.59914063 3.51171875 10.51953125 C2.93686419 13.30604 2.1793144 14.24135754 0 16 C-0.91397824 10.31302429 -0.91397824 5.68697571 0 0 Z " fill="#03AE04" transform="translate(55,50)"/>
<path d="M0 0 C0 3.63 0 7.26 0 11 C-0.99 11.495 -0.99 11.495 -2 12 C-2 11.34 -2 10.68 -2 10 C-2.99 9.67 -3.98 9.34 -5 9 C-5.25 6.75 -5.25 6.75 -5 4 C-1.64864865 0 -1.64864865 0 0 0 Z " fill="#1E1527" transform="translate(46,29)"/>
</svg>
